<?xml version="1.0" standalone="no"?>
<!DOCTYPE svg PUBLIC "-//W3C//DTD SVG 20010904//EN"
 "http://www.w3.org/TR/2001/REC-SVG-20010904/DTD/svg10.dtd">
<svg version="1.0" xmlns="http://www.w3.org/2000/svg"
 width="1076.000000pt" height="1076.000000pt" viewBox="0 0 1076.000000 1076.000000"
 preserveAspectRatio="xMidYMid meet">
<metadata>
Created by potrace 1.14, written by Peter Selinger 2001-2017
</metadata>
<g transform="translate(0.000000,1076.000000) scale(0.100000,-0.100000)"
fill="#000000" stroke="none">
<path d="M5373 10618 c-6 -7 -26 -44 -45 -83 -19 -38 -83 -164 -143 -280 -59
-115 -153 -300 -209 -410 -55 -110 -104 -201 -108 -203 -5 -2 -8 -12 -8 -22 0
-10 -3 -20 -7 -22 -5 -1 -42 -70 -83 -153 -41 -82 -78 -151 -82 -153 -5 -2 -8
-11 -8 -21 0 -9 -4 -21 -9 -26 -5 -6 -62 -113 -126 -240 -110 -215 -206 -404
-430 -840 -51 -99 -154 -301 -230 -450 -76 -148 -142 -274 -146 -279 -5 -6 -9
-18 -9 -27 0 -10 -4 -19 -8 -21 -4 -1 -58 -102 -119 -223 -62 -121 -137 -267
-167 -325 -31 -58 -60 -116 -66 -130 -5 -14 -14 -32 -19 -40 -5 -8 -47 -89
-94 -180 -202 -395 -317 -620 -429 -840 -66 -129 -167 -325 -223 -435 -222
-433 -297 -580 -430 -840 -76 -148 -146 -286 -157 -305 -10 -19 -18 -40 -18
-47 0 -6 -4 -13 -8 -15 -5 -1 -46 -77 -92 -168 -45 -91 -117 -232 -160 -315
-43 -82 -130 -253 -195 -380 -65 -126 -159 -311 -210 -410 -51 -99 -161 -315
-245 -480 -84 -165 -156 -304 -161 -309 -5 -6 -9 -15 -9 -20 0 -8 359 -11
1169 -11 l1168 0 73 170 c40 93 85 197 100 230 14 33 62 141 104 240 43 99 89
204 102 233 13 29 24 54 24 57 0 2 13 32 29 67 37 81 115 261 117 268 0 3 11
28 23 55 27 59 44 98 46 105 0 3 11 28 24 55 12 28 43 97 68 155 25 58 58 133
74 168 16 35 29 65 29 68 0 2 32 77 71 166 39 90 100 231 136 313 36 83 74
170 85 195 21 48 43 97 64 145 7 17 27 61 43 99 17 38 31 75 31 82 0 8 5 14
12 14 6 0 8 3 5 6 -4 4 2 23 13 43 10 20 31 64 45 98 14 35 36 86 49 115 13
29 67 152 119 273 52 121 106 246 121 277 29 62 48 108 52 123 1 6 54 128 118
273 64 145 116 265 116 267 0 3 13 33 29 67 16 35 50 113 76 173 26 61 60 137
75 170 15 33 30 70 34 83 4 12 11 22 15 22 4 0 22 -35 40 -77 19 -43 41 -96
51 -118 10 -22 47 -107 83 -190 103 -239 254 -585 402 -925 76 -173 141 -324
145 -335 4 -11 22 -50 39 -88 17 -37 31 -70 31 -72 0 -2 11 -28 24 -57 50
-112 151 -343 151 -348 0 -3 8 -21 17 -40 9 -19 55 -125 103 -235 47 -110 95
-218 105 -240 10 -22 30 -69 45 -105 15 -36 37 -87 50 -115 12 -27 44 -99 70
-160 26 -60 55 -128 65 -150 10 -22 38 -87 63 -145 24 -58 54 -125 65 -150 11
-25 48 -110 83 -190 34 -80 71 -165 82 -190 11 -25 27 -63 37 -85 10 -22 27
-61 39 -87 11 -26 21 -50 21 -52 0 -3 13 -33 29 -68 27 -60 123 -280 191 -438
57 -132 80 -185 89 -200 7 -13 148 -15 1174 -15 1162 0 1167 0 1161 20 -4 11
-14 34 -24 50 -10 17 -77 147 -150 290 -73 143 -179 350 -235 460 -106 207
-224 437 -423 825 -261 511 -294 576 -304 587 -6 7 -7 13 -3 13 4 0 3 6 -2 13
-6 6 -60 109 -121 227 -60 118 -150 292 -199 387 -48 95 -94 185 -101 200 -7
15 -17 35 -22 43 -4 8 -59 114 -120 235 -93 181 -268 522 -300 585 -5 8 -11
22 -14 30 -3 8 -36 71 -72 140 -36 69 -131 253 -211 410 -80 157 -187 366
-238 465 -51 99 -152 297 -225 440 -73 143 -174 341 -225 440 -96 187 -226
440 -410 800 -59 116 -151 296 -205 400 -53 105 -155 303 -225 440 -70 138
-165 322 -210 410 -45 88 -156 304 -245 480 -90 176 -164 321 -165 323 -1 1
-7 -3 -12 -10z"/>
<path d="M5348 5288 c-29 -73 -433 -1028 -453 -1073 -8 -16 -39 -91 -69 -165
-31 -74 -63 -147 -71 -162 -9 -15 -16 -30 -15 -33 0 -3 -7 -21 -15 -41 -8 -20
-15 -38 -15 -40 0 -2 -11 -27 -24 -56 -33 -74 -49 -112 -51 -118 -1 -3 -6 -16
-12 -30 -6 -14 -43 -101 -83 -195 -39 -93 -77 -183 -85 -200 -7 -16 -30 -70
-50 -119 -20 -49 -40 -96 -45 -105 -5 -9 -18 -41 -30 -71 -12 -30 -30 -73 -40
-95 -10 -22 -52 -123 -95 -225 -43 -102 -85 -203 -95 -225 -10 -22 -48 -112
-84 -200 -75 -180 -85 -203 -96 -226 -5 -9 -41 -94 -80 -190 -40 -96 -75 -178
-79 -184 -3 -5 -11 -23 -17 -40 -11 -30 -334 -794 -359 -850 -35 -79 -85 -199
-85 -207 0 -4 936 -8 2080 -8 1144 0 2080 2 2080 5 0 6 -36 98 -59 149 -10 23
-49 113 -86 201 -37 88 -73 174 -80 190 -7 17 -56 133 -109 258 -53 126 -103
242 -111 258 -9 16 -15 31 -15 34 0 3 -6 20 -14 38 -21 50 -172 409 -186 442
-7 17 -21 48 -30 70 -10 22 -48 112 -85 200 -71 173 -69 167 -114 268 -17 38
-31 71 -31 73 0 3 -56 137 -124 297 -231 544 -286 676 -286 684 0 5 -5 14 -12
21 -6 6 -13 17 -14 24 -2 11 -61 158 -99 243 -36 83 -62 145 -195 460 -102
244 -263 624 -279 660 -10 22 -47 109 -82 193 -35 83 -66 152 -70 152 -3 0
-17 -28 -31 -62z"/>
</g>
</svg>
